# xmcd CD database file
#
# Track frame offsets:
#	150
#	13740
#	27674
#	41187
#	53296
#	66217
#	78634
#	92480
#	105320
#	119370
#	133426
#	146083
#	158790
#	169981
#	184378
#	198069
#
# Disc length: 2797 seconds
#
# Revision: 1
# Processed by: cddbd v1.4PL0 Copyright (c) Steve Scherf et al.
# Submitted via: CDex 1.50Beta7
#
DISCID=e10aeb10
DTITLE=Various Artist - The Great Dixieland Bands   Disk 1
DYEAR=1900
DGENRE=Jazz
TTITLE0=I've Found A New Baby - George Wettlings Chicago Rhythm Kings
TTITLE1=The Darktown Strutters Ball  - George Wettlings Chicago Rhythm Kings
TTITLE2=Heebie Jeebies - George Wettlings Chicago Rhythm Kings
TTITLE3=Fidgety Feet - Eddie Condon and His Band
TTITLE4=At The Jazz Band Ball - Muggsy Spanier and His Ragtime Band
TTITLE5=Dinah - Muggsy Spanier and His Ragtime Band
TTITLE6=Big Butter and Egg Man - Muggsy Spanier and His Ragtime Band
TTITLE7=Harlem Rag - Lu Watters 'Yerba BuenaJazz Band
TTITLE8=Muskrat Ramble - Wild Bill Davidson and His Commodores
TTITLE9=Original Dixieland One Step - Wild Bill Davidson and His Commodores
TTITLE10=Sweet Georgia Brown - Red Nichols and His Five Pennies
TTITLE11=Tiger Rag - Original Dixieland Band
TTITLE12=Clarinet Marmalade - Original Dixieland Band
TTITLE13=Goody Goody - Wingy Malone and His Orchestra
TTITLE14=12th Street Rag - Sidney Bechet and The New Orleans Feetwarmers
TTITLE15=Limehouse Blues - Sidney Bechet and The New Orleans Feetwarmers 
EXTD=
EXTT0=
EXTT1=
EXTT2=
EXTT3=
EXTT4=
EXTT5=
EXTT6=
EXTT7=
EXTT8=
EXTT9=
EXTT10=
EXTT11=
EXTT12=
EXTT13=
EXTT14=
EXTT15=
PLAYORDER=
